<?xml version="1.0" encoding="UTF-8"?>
<svg width="1457px" height="1965px" viewBox="0 0 1457 1965" version="1.1" xmlns="http://www.w3.org/2000/svg" xmlns:xlink="http://www.w3.org/1999/xlink">
    <title>Desktop HD Copy 2</title>
    <g id="Desktop-HD-Copy-2" stroke="none" stroke-width="1" fill="none" fill-rule="evenodd">
        <rect fill="#1A1A1A" x="0" y="0" width="1457" height="1965"></rect>
        <path d="M1647,780.94641 C1427.86887,875.414904 1251.11877,923.095104 1116.7497,923.987009 C982.380627,924.878914 760.254566,879.846345 450.371514,788.889302 C423.006931,716.869323 455.570263,650.632604 548.06151,590.179145 C686.798379,499.498957 844.141781,521.640519 971.794085,435.141767 C1099.44639,348.643015 1121.76835,123.590026 1289.32355,32.9032035 C1401.02702,-27.5546784 1520.25251,-60.8557462 1647,-67 L1647,780.94641 Z" id="Line" fill="#2B2B2B"></path>
        <path d="M728,547.772932 L-363,554 C-360.289156,495.83953 -330.600246,443.911275 -273.933271,398.215233 C-188.932807,329.671171 -3.98852202,344.482329 112.395691,276.669047 C228.779903,208.855765 249.131462,32.4187477 401.896278,-38.6778976 C503.739488,-86.0756611 612.440729,-112.183029 728,-117 L728,547.772932 Z" id="Line-Copy-2" fill="#2B2B2B" transform="translate(182.500000, 218.500000) scale(-1, -1) translate(-182.500000, -218.500000) "></path>
        <path d="M912.720949,2380.70131 L-447.795279,2239.2023 C-455.376262,2064.12577 -429.016473,1942.31043 -368.715911,1873.75628 C-278.265068,1770.92505 -44.6044403,1841.52886 85.0962353,1747.4783 C214.796911,1653.42774 200.4782,1341.50747 374.749409,1250.21999 C490.930215,1189.36166 620.438341,1168.35879 763.273788,1187.21137 L912.720949,2380.70131 Z" id="Line-Copy-3" fill="#2B2B2B" transform="translate(231.827854, 1780.612196) scale(-1, 1) rotate(18.000000) translate(-231.827854, -1780.612196) "></path>
        <path d="M1744,1094 C1501.27975,810.743514 1265.38512,726.780005 1036.31609,842.109475 C692.712557,1015.10368 571.036995,985.707087 473.161284,904.255594 C375.285572,822.8041 428.158354,678.235647 590.87829,613.730152 C753.598227,549.224656 1089.01325,607.120956 1216.90565,520.636975 C1344.79806,434.152994 1373.03087,141.051255 1540.90123,50.3799186 C1652.8148,-10.0676388 1708.18769,-21.0310065 1707.01988,17.4898155 L1744,1094 Z" id="Line-Copy" fill="#3F3F3F"></path>
    </g>
</svg>